<svg width="15.000000" height="15.000000" viewBox="0 0 15 15" fill="none"
    xmlns="http://www.w3.org/2000/svg" xmlns:xlink="http://www.w3.org/1999/xlink">
    <desc>
        Created with Pixso.
    </desc>
    <defs />
    <path id="Dribbble"
        d="M7.5 0C3.37 0 0 3.37 0 7.5C0 11.62 3.37 15 7.5 15C11.62 15 15 11.62 15 7.5C15 3.37 11.62 0 7.5 0ZM13.68 7.12C12.06 6.87 10.62 6.87 9.25 7.06C9.12 6.68 8.93 6.37 8.75 6C10.18 5.37 11.37 4.5 12.18 3.43C13.06 4.5 13.62 5.75 13.68 7.12ZM11.25 2.62C10.5 3.62 9.43 4.37 8.12 4.93C7.5 3.75 6.81 2.62 6 1.5C6.5 1.37 7 1.31 7.5 1.31C8.93 1.31 10.25 1.81 11.25 2.62ZM4.68 2C5.5 3.06 6.25 4.18 6.87 5.37C5.37 5.81 3.56 6 1.5 6.06C1.93 4.25 3.12 2.81 4.68 2ZM1.31 7.5L1.31 7.31C3.68 7.31 5.81 7.06 7.5 6.5C7.62 6.81 7.81 7.12 7.93 7.37C5.81 8.06 4.06 9.37 2.75 11.43C1.87 10.37 1.31 9 1.31 7.5ZM3.68 12.37C4.93 10.43 6.5 9.18 8.43 8.62C9 10.12 9.43 11.68 9.68 13.31C7.62 14.06 5.37 13.68 3.68 12.37ZM10.93 12.62C10.68 11.12 10.25 9.68 9.75 8.31C10.93 8.12 12.18 8.18 13.62 8.43C13.31 10.18 12.37 11.68 10.93 12.62Z"
        fill="#1F1F1F" fill-opacity="1.000000" fill-rule="evenodd" />
</svg>