<svg width="163.000000" height="54.000000" viewBox="0 0 163 54" fill="none"
    xmlns="http://www.w3.org/2000/svg" xmlns:xlink="http://www.w3.org/1999/xlink">
    <desc>
        Created with Pixso.
    </desc>
    <defs />
    <path id="RRF"
        d="M7.32 40L2.58 40L2.58 13.81L12.4 13.81C14.71 13.81 16.62 14.31 18.08 15.22L18.08 13.81L27.9 13.81C33.91 13.81 37.13 17.19 37.13 22.19C37.13 25.74 35.5 28.38 32.42 29.62L38.08 40L32.79 40L27.65 30.41L22.82 30.41L22.82 40L17.29 40L12.15 30.41L7.32 30.41L7.32 40ZM18.08 31.74L18.08 29.04C17.72 29.26 17.33 29.45 16.92 29.62L18.08 31.74ZM7.32 17.78L7.32 26.47L11.69 26.47C15.21 26.47 16.79 24.97 16.79 22.19C16.79 19.4 15.21 17.78 11.67 17.78L7.32 17.78ZM22.82 17.78L22.82 26.47L27.19 26.47C30.71 26.47 32.29 24.97 32.29 22.19C32.29 19.4 30.71 17.78 27.17 17.78L22.82 17.78Z"
        fill="#FFFFFF" fill-opacity="1.000000" fill-rule="evenodd" />
    <path id="RRF"
        d="M38.32 40L33.58 40L33.58 13.81L50.35 13.81L50.35 17.79L38.32 17.79L38.32 24.9L49.2 24.9L49.2 28.88L38.32 28.88L38.32 40Z"
        fill="#FC3314" fill-opacity="1.000000" fill-rule="evenodd" />
    <path id="EXAM"
        d="M76.71 40L59.58 40L59.58 13.81L76.6 13.81L76.6 17.79L64.32 17.79L64.32 24.9L75.72 24.9L75.72 28.88L64.32 28.88L64.32 36.02L76.71 36.02L76.71 40ZM79.98 13.81L85.42 13.81L91.18 23.4L91.38 23.4L97.18 13.81L102.58 13.81L94.51 26.91L102.71 40L97.21 40L91.38 30.47L91.18 30.47L85.35 40L79.88 40L88.15 26.91L79.98 13.81ZM111.82 33.54L109.66 40L104.6 40L113.82 13.81L119.67 13.81L128.9 40L123.84 40L121.67 33.54L111.82 33.54ZM132.36 40L132.36 13.81L138.16 13.81L145.94 32.79L146.24 32.79L154.02 13.81L159.82 13.81L159.82 40L155.26 40L155.26 22L155.03 22L147.78 39.92L144.39 39.92L137.15 21.97L136.91 21.97L136.91 40L132.36 40ZM116.65 19.18L113.11 29.73L120.39 29.73L116.85 19.18L116.65 19.18Z"
        fill="#FC3314" fill-opacity="1.000000" fill-rule="evenodd" />
</svg>